{
  "asset": {
    "generator": "glTF-Transform v2.0.4",
    "version": "2.0",
    "extras": {
      "author": "soidev (https://sketchfab.com/soidev)",
      "license": "CC-BY-4.0 (http://creativecommons.org/licenses/by/4.0/)",
      "source": "https://sketchfab.com/models/da34b37a224e4e49b307c0b17a50af2c",
      "title": "Portal Frame"
    }
  },
  "accessors": [
    {
      "type": "VEC3",
      "componentType": 5126,
      "count": 2500,
      "max": [
        1.6079773902893066,
        0.47027602791786194,
        3.8324391841888428
      ],
      "min": [
        -1.6079773902893066,
        -0.47027602791786194,
        0.0033188837114721537
      ],
      "bufferView": 0,
      "byteOffset": 0
    },
    {
      "type": "VEC3",
      "componentType": 5126,
      "count": 2500,
      "bufferView": 0,
      "byteOffset": 12
    },
    {
      "type": "VEC4",
      "componentType": 5126,
      "count": 2500,
      "bufferView": 0,
      "byteOffset": 24
    },
    {
      "type": "VEC2",
      "componentType": 5126,
      "count": 2500,
      "bufferView": 0,
      "byteOffset": 40
    },
    {
      "type": "SCALAR",
      "componentType": 5125,
      "count": 8670,
      "bufferView": 1,
      "byteOffset": 0
    }
  ],
  "bufferViews": [
    {
      "buffer": 0,
      "byteOffset": 0,
      "byteLength": 120000,
      "byteStride": 48,
      "target": 34962
    },
    {
      "buffer": 0,
      "byteOffset": 120000,
      "byteLength": 34680,
      "target": 34963
    }
  ],
  "samplers": [
    {
      "magFilter": 9729,
      "minFilter": 9987,
      "wrapS": 10497,
      "wrapT": 10497
    }
  ],
  "textures": [
    {
      "source": 2,
      "sampler": 0
    },
    {
      "source": 0,
      "sampler": 0
    },
    {
      "source": 3,
      "sampler": 0
    },
    {
      "source": 1,
      "sampler": 0
    }
  ],
  "images": [
    {
      "uri": "portal_img0.jpg"
    },
    {
      "uri": "portal_img1.jpg"
    },
    {
      "uri": "portal_img2.jpg"
    },
    {
      "uri": "portal_img3.jpg"
    }
  ],
  "buffers": [
    {
      "uri": "portal_data.bin",
      "byteLength": 154680
    }
  ],
  "materials": [
    {
      "name": "PortalFrame",
      "doubleSided": true,
      "pbrMetallicRoughness": {
        "baseColorTexture": {
          "index": 0
        },
        "metallicRoughnessTexture": {
          "index": 3
        }
      },
      "emissiveFactor": [
        1,
        1,
        1
      ],
      "emissiveTexture": {
        "index": 1
      },
      "normalTexture": {
        "index": 2
      },
      "occlusionTexture": {
        "index": 3
      }
    }
  ],
  "meshes": [
    {
      "name": "PortalFrame_PortalFrame_0",
      "primitives": [
        {
          "attributes": {
            "NORMAL": 1,
            "POSITION": 0,
            "TANGENT": 2,
            "TEXCOORD_0": 3
          },
          "mode": 4,
          "material": 0,
          "indices": 4
        }
      ]
    }
  ],
  "nodes": [
    {
      "name": "RootNode (gltf orientation matrix)",
      "rotation": [
        -0.7071067811865475,
        0,
        0,
        0.7071067811865476
      ],
      "children": [
        1
      ]
    },
    {
      "name": "RootNode (model correction matrix)",
      "children": [
        2
      ]
    },
    {
      "name": "PortalThing.fbx",
      "rotation": [
        0.7071067811865475,
        0,
        0,
        0.7071067811865476
      ],
      "children": [
        3
      ]
    },
    {
      "name": "RootNode",
      "children": [
        4
      ]
    },
    {
      "name": "PortalFrame",
      "rotation": [
        -0.7071068387877038,
        0,
        0,
        0.7071067235853866
      ],
      "scale": [
        100,
        100.00000000000001,
        100.00000000000001
      ],
      "children": [
        5
      ]
    },
    {
      "name": "PortalFrame_PortalFrame_0",
      "mesh": 0
    }
  ],
  "scenes": [
    {
      "name": "OSG_Scene",
      "nodes": [
        0
      ]
    }
  ],
  "scene": 0
}